<svg width="32" height="32" viewBox="0 0 32 32" fill="none" xmlns="http://www.w3.org/2000/svg">
<circle cx="16" cy="16" r="16" fill="#FFE6CC"/>
<path d="M9 16C8.46957 16 7.96086 15.7893 7.58579 15.4142C7.21071 15.0391 7 14.5304 7 14C7 12.1435 7.94821 10.363 9.63604 9.05025C11.3239 7.7375 13.6131 7 16 7C18.3869 7 20.6761 7.7375 22.364 9.05025C24.0518 10.363 25 12.1435 25 14C25 14.5304 24.7893 15.0391 24.4142 15.4142C24.0391 15.7893 23.5304 16 23 16L19.5 20.1C18.7 21.1 17.1 21.2 16.1 20.4L11 16" stroke="#D8740B" stroke-width="2" stroke-linecap="round" stroke-linejoin="round"/>
<path d="M15.7 20H8C7.46957 20 6.96086 19.7893 6.58579 19.4142C6.21071 19.0391 6 18.5304 6 18C6 17.4696 6.21071 16.9609 6.58579 16.5858C6.96086 16.2107 7.46957 16 8 16H24C24.5304 16 25.0391 16.2107 25.4142 16.5858C25.7893 16.9609 26 17.4696 26 18C26 18.5304 25.7893 19.0391 25.4142 19.4142C25.0391 19.7893 24.5304 20 24 20H19.7M9 20C8.46957 20 7.96086 20.2107 7.58579 20.5858C7.21071 20.9609 7 21.4696 7 22C7 23.7 8.3 25 10 25H22C23.7 25 25 23.7 25 22C25 21.4696 24.7893 20.9609 24.4142 20.5858C24.0391 20.2107 23.5304 20 23 20" stroke="#D8740B" stroke-width="2" stroke-linecap="round" stroke-linejoin="round"/>
</svg>
