<svg width="63" height="63" viewBox="0 0 63 63" fill="none" xmlns="http://www.w3.org/2000/svg">
<rect width="63" height="63" rx="10" fill="url(#paint0_linear_10_826)"/>
<path d="M27.4615 39.5769C27.4615 40.2159 27.2721 40.8405 26.9171 41.3718C26.5621 41.9031 26.0575 42.3172 25.4671 42.5617C24.8768 42.8063 24.2272 42.8703 23.6005 42.7456C22.9738 42.6209 22.3981 42.3132 21.9463 41.8614C21.4944 41.4096 21.1867 40.8339 21.0621 40.2072C20.9374 39.5805 21.0014 38.9309 21.2459 38.3405C21.4905 37.7502 21.9046 37.2456 22.4359 36.8906C22.9671 36.5356 23.5918 36.3461 24.2308 36.3461C25.0876 36.3461 25.9094 36.6865 26.5153 37.2924C27.1212 37.8983 27.4615 38.72 27.4615 39.5769ZM40.3846 36.3461C39.7456 36.3461 39.121 36.5356 38.5897 36.8906C38.0584 37.2456 37.6443 37.7502 37.3998 38.3405C37.1552 38.9309 37.0913 39.5805 37.2159 40.2072C37.3406 40.8339 37.6483 41.4096 38.1001 41.8614C38.5519 42.3132 39.1276 42.6209 39.7543 42.7456C40.381 42.8703 41.0306 42.8063 41.621 42.5617C42.2113 42.3172 42.7159 41.9031 43.0709 41.3718C43.4259 40.8405 43.6154 40.2159 43.6154 39.5769C43.6154 38.72 43.275 37.8983 42.6691 37.2924C42.0632 36.6865 41.2415 36.3461 40.3846 36.3461Z" stroke="white" stroke-width="3" stroke-linecap="round" stroke-linejoin="round"/>
<path d="M35.5384 39.5769V21.8076C35.5384 21.3792 35.3682 20.9683 35.0653 20.6654C34.7623 20.3625 34.3515 20.1923 33.923 20.1923H17.7692C17.3408 20.1923 16.9299 20.3625 16.6269 20.6654C16.324 20.9683 16.1538 21.3792 16.1538 21.8076V37.9615C16.1538 38.3899 16.324 38.8008 16.6269 39.1037C16.9299 39.4067 17.3408 39.5769 17.7692 39.5769H21C21 38.72 21.3403 37.8983 21.9462 37.2924C22.5521 36.6865 23.3739 36.3461 24.2307 36.3461C25.0876 36.3461 25.9093 36.6865 26.5152 37.2924C27.1211 37.8983 27.4615 38.72 27.4615 39.5769H35.5384ZM35.5384 39.5769V25.0384H41.1277C41.3965 25.0371 41.6613 25.1029 41.8983 25.2299C42.1352 25.3568 42.3367 25.5408 42.4846 25.7653L44.9561 29.4807C45.1328 29.7436 45.2283 30.0525 45.2307 30.3692V39.5769H43.6153C43.6153 38.72 43.275 37.8983 42.6691 37.2924C42.0632 36.6865 41.2414 36.3461 40.3846 36.3461C39.5277 36.3461 38.706 36.6865 38.1001 37.2924C37.4942 37.8983 37.1538 38.72 37.1538 39.5769H35.5384Z" stroke="white" stroke-width="3" stroke-linecap="round" stroke-linejoin="round"/>
<defs>
<linearGradient id="paint0_linear_10_826" x1="0" y1="0" x2="63" y2="63" gradientUnits="userSpaceOnUse">
<stop stop-color="#504178"/>
<stop offset="1" stop-color="#FF7B8A"/>
</linearGradient>
</defs>
</svg>
